<svg width="348" height="280" viewBox="0 0 348 280" fill="none" xmlns="http://www.w3.org/2000/svg">
<path d="M83.5653 74.5663C76.783 74.5663 72.0233 76.8646 68.692 79.6413V77.4392C68.692 76.0042 65.1213 75.2371 58.5782 75.2371H58.339C51.7958 75.2371 48.2252 78.11 48.3448 83.3746C48.4645 89.5025 48.5805 95.4408 48.5805 101.758C48.5805 114.781 48.3448 126.938 48.2252 139.768C48.2252 145.036 51.7958 147.906 58.339 147.906H58.5782C65.1213 147.906 68.692 145.036 68.5723 139.768C68.4527 133.64 68.0975 127.609 67.1441 121.577L67.8582 120.524C70.8343 125.792 76.5473 129.332 83.9242 129.332C97.9638 129.332 109.27 119.853 109.27 100.898C109.27 80.7904 97.9638 74.5663 83.5653 74.5663ZM78.4505 116.409C73.2123 116.409 68.8116 114.492 68.4527 108.268L68.3367 108.365C68.3367 106.355 68.3367 104.343 68.4527 102.333C68.5723 93.9067 68.4527 92.95 68.3367 91.8008C70.7147 89.3129 73.4516 88.0675 77.9756 88.0675C85.5881 88.0675 89.9925 91.7046 89.9925 101.855C89.9925 113.632 84.6383 116.409 78.4505 116.409Z" fill="#A788AB"/>
<path d="M142.231 129.236C156.869 129.236 165.793 125.885 168.646 118.8C170.433 114.493 166.029 111.812 159.841 111.812C154.726 111.812 154.248 114.493 149.727 116.887C148.06 117.651 145.562 118.13 142.351 118.13C136.163 118.13 131.639 115.738 131.164 105.877H169.125C170.075 105.877 170.789 105.302 170.908 104.343C173.17 86.5363 164.365 74.4729 142.231 74.4729C121.645 74.4729 111.531 83.3746 111.531 100.994C111.531 119.853 120.93 129.236 142.231 129.236ZM131.283 96.8758C131.044 89.1204 135.09 85.3871 141.278 85.3871C148.18 85.3871 151.036 89.2167 150.797 96.8758H131.283Z" fill="#A788AB"/>
<path d="M207.44 116.695C201.727 116.791 199.229 114.207 199.229 108.653C199.229 103.675 199.109 98.025 199.349 92.5679C199.349 90.8442 199.468 89.2167 199.468 87.4929L208.748 87.3967C214.697 87.3967 217.912 85.2908 217.912 81.365C217.912 77.4392 214.342 75.3333 207.795 75.3333H199.468V66.9071C199.468 61.835 195.064 59.6329 188.401 61.3537C182.808 62.7917 180.071 65.7579 180.071 70.5471C180.071 72.1746 180.19 73.7058 180.19 75.3333H175.192C171.98 75.3333 170.073 77.5354 170.073 81.4612C170.073 85.3871 173.644 87.5892 180.19 87.5892H180.31V92.5679C180.31 98.6958 180.31 104.917 180.19 110.567C179.832 124.45 189.351 129.429 204.108 129.429C206.845 129.429 209.582 129.236 211.96 128.854C217.198 127.994 219.221 124.832 218.742 120.717C218.267 116.791 214.342 116.502 207.44 116.695Z" fill="#A788AB"/>
<path d="M153.785 171.156C153.705 165.443 153.549 160.114 153.705 155.669C154.02 145.198 149.841 140.945 141.557 140.945C135.486 140.945 130.831 143.04 127.833 147.482H127.598C125.861 142.914 122.153 140.945 116.476 140.945C110.401 140.945 105.746 143.04 102.752 147.482H102.672C102.752 146.277 102.752 145.262 102.828 144.437C102.828 142.532 100.385 141.453 96.0455 141.453C91.7064 141.453 89.3393 143.358 89.419 146.849C89.4988 150.909 89.5785 154.846 89.5785 159.035C89.5785 163.223 89.4988 167.158 89.419 171.218C89.3393 174.709 91.7064 176.613 96.0455 176.613H96.5965C100.936 176.613 103.303 174.709 103.223 171.218C103.223 167.158 103.143 163.223 103.223 159.035V153.767C104.564 151.48 106.852 150.148 109.85 150.086C113.398 150.022 115.215 151.419 115.215 155.543C115.215 159.921 115.135 165.317 115.055 171.156C115.055 174.709 117.422 176.613 121.761 176.613H121.997C126.336 176.613 128.7 174.709 128.7 171.156C128.623 165.443 128.464 160.114 128.623 155.669V153.321C129.965 151.291 132.093 150.148 134.931 150.086C138.483 150.022 140.296 151.419 140.296 155.543C140.296 159.921 140.216 165.317 140.14 171.156C140.14 174.709 142.504 176.613 146.843 176.613H147.078C151.417 176.613 153.785 174.709 153.785 171.156Z" fill="#A788AB"/>
<path d="M170.664 177.249C175.079 177.249 179.338 176.042 182.496 173.568C182.572 174.076 182.652 174.583 182.887 175.091C183.203 176.106 185.334 176.613 189.358 176.613H190.068C194.328 176.613 196.535 174.645 196.296 171.092C196.061 166.775 196.061 161.254 196.061 153.639C196.061 145.134 190.224 140.945 178.472 140.945C166.955 140.945 160.884 143.422 159.067 148.371C157.806 151.863 161.039 153.893 165.458 153.893H166.245C170.109 153.893 170.425 152.18 172.712 149.386C173.662 148.246 175.394 147.8 177.446 147.8C180.915 147.8 182.496 149.197 182.496 153.828V155.987C164.748 155.608 156.624 159.732 156.624 167.665C156.624 174.33 162.856 177.249 170.664 177.249ZM174.843 170.077C171.135 170.077 169.163 168.362 169.163 165.95C169.163 161.89 175.474 161.19 182.652 161.065V166.775C180.839 168.87 178.392 170.077 174.843 170.077Z" fill="#A788AB"/>
<path d="M220.908 168.934C217.12 168.998 215.463 167.283 215.463 163.602C215.463 160.303 215.387 156.558 215.543 152.942C215.543 151.798 215.623 150.719 215.623 149.579L221.774 149.515C225.718 149.515 227.85 148.118 227.85 145.516C227.85 142.914 225.483 141.517 221.144 141.517H215.623V135.932C215.623 132.569 212.705 131.11 208.286 132.251C204.581 133.205 202.765 135.17 202.765 138.344C202.765 139.423 202.845 140.438 202.845 141.517H199.531C197.4 141.517 196.138 142.978 196.138 145.58C196.138 148.182 198.506 149.64 202.845 149.64H202.924V152.942C202.924 157.002 202.924 161.129 202.845 164.874C202.609 174.076 208.917 177.375 218.697 177.375C220.513 177.375 222.325 177.249 223.906 176.995C227.375 176.424 228.716 174.33 228.401 171.6C228.086 168.998 225.483 168.808 220.908 168.934Z" fill="#A788AB"/>
<path d="M248.749 177.249C258.293 177.249 264.053 174.33 265.946 168.808C267.051 165.571 264.448 163.602 260.66 163.602C256.716 163.602 256.165 165.443 253.642 168.173C252.693 169.123 251.116 169.505 248.908 169.505C244.728 169.505 241.966 167.537 241.966 159.224C241.966 151.927 243.858 149.386 248.908 149.386C251.67 149.386 253.088 149.958 253.878 151.291C255.535 154.4 256.56 156.115 260.66 156.115C264.604 156.115 267.207 154.021 266.181 150.465C264.369 144.308 258.848 140.945 249.144 140.945C235.264 140.945 228.478 147.103 228.478 159.224C228.478 171.282 234.709 177.249 248.749 177.249Z" fill="#A788AB"/>
<path d="M308.616 171.156C308.54 165.443 308.381 160.114 308.54 155.669C308.856 145.198 304.672 140.945 296.393 140.945C290.317 140.945 285.663 143.04 282.669 147.482L282.589 147.356C283.14 144.755 283.14 142.089 283.14 139.169C283.14 138.154 283.14 136.632 283.14 134.981C283.14 132.187 280.852 130.664 276.513 130.664H275.962C271.623 130.664 269.256 132.569 269.256 136.06C269.336 141.835 269.495 147.228 269.495 152.942C269.495 159.224 269.336 165.128 269.256 171.218C269.256 174.709 271.623 176.613 275.962 176.613H276.513C280.852 176.613 283.22 174.709 283.22 171.218C283.14 165.443 282.984 159.796 283.14 153.893C284.401 151.545 286.689 150.148 289.766 150.086C293.315 150.022 295.131 151.419 295.131 155.543C295.131 159.921 295.052 165.317 294.972 171.156C294.972 174.709 297.339 176.613 301.678 176.613H301.914C306.253 176.613 308.616 174.709 308.616 171.156Z" fill="#A788AB"/>
<mask id="mask0_9_1709" style="mask-type:luminance" maskUnits="userSpaceOnUse" x="259" y="88" width="45" height="36">
<path d="M259.84 88.8533H303.456V123.947H259.84V88.8533Z" fill="white"/>
</mask>
<g mask="url(#mask0_9_1709)">
<mask id="mask1_9_1709" style="mask-type:luminance" maskUnits="userSpaceOnUse" x="211" y="51" width="108" height="88">
<path d="M211.098 102.495L267.985 51.0212L318.438 87.1179L261.551 138.591L211.098 102.495Z" fill="white"/>
</mask>
<g mask="url(#mask1_9_1709)">
<mask id="mask2_9_1709" style="mask-type:luminance" maskUnits="userSpaceOnUse" x="211" y="51" width="108" height="88">
<path d="M211.098 102.495L267.985 51.0212L318.438 87.1179L261.551 138.591L211.098 102.495Z" fill="white"/>
</mask>
<g mask="url(#mask2_9_1709)">
<mask id="mask3_9_1709" style="mask-type:luminance" maskUnits="userSpaceOnUse" x="245" y="76" width="63" height="52">
<path d="M245.764 106.89L279.016 76.8046L307.324 97.0608L274.075 127.146L245.764 106.89Z" fill="white"/>
</mask>
<g mask="url(#mask3_9_1709)">
<mask id="mask4_9_1709" style="mask-type:luminance" maskUnits="userSpaceOnUse" x="245" y="76" width="63" height="52">
<path d="M245.764 106.89L279.016 76.8046L307.32 97.055L274.068 127.14L245.764 106.89Z" fill="white"/>
</mask>
<g mask="url(#mask4_9_1709)">
<path d="M262.907 107.284C263.262 111.837 259.108 118.142 268.225 122.552C277.516 127.044 285.269 116.702 290.203 111.95C292.831 109.425 306.363 100.984 302.253 94.465C298.657 88.7658 291.769 89.0021 282.598 90.2504C274.402 91.3675 266.717 87.8529 261.779 92.4117C257.158 96.6787 262.686 104.495 262.907 107.284Z" fill="#A788AB"/>
</g>
</g>
</g>
</g>
</g>
<mask id="mask5_9_1709" style="mask-type:luminance" maskUnits="userSpaceOnUse" x="230" y="106" width="24" height="14">
<path d="M230.144 106.773H253.344V119.467H230.144V106.773Z" fill="white"/>
</mask>
<g mask="url(#mask5_9_1709)">
<mask id="mask6_9_1709" style="mask-type:luminance" maskUnits="userSpaceOnUse" x="211" y="51" width="108" height="88">
<path d="M211.098 102.495L267.985 51.0212L318.438 87.1179L261.551 138.591L211.098 102.495Z" fill="white"/>
</mask>
<g mask="url(#mask6_9_1709)">
<mask id="mask7_9_1709" style="mask-type:luminance" maskUnits="userSpaceOnUse" x="211" y="51" width="108" height="88">
<path d="M211.098 102.495L267.985 51.0212L318.438 87.1179L261.551 138.591L211.098 102.495Z" fill="white"/>
</mask>
<g mask="url(#mask7_9_1709)">
<path d="M241.987 107.01C248.197 107.013 253.116 109.69 252.974 112.989C252.829 116.285 247.682 118.953 241.472 118.948C235.263 118.942 230.343 116.264 230.485 112.968C230.626 109.673 235.777 107.004 241.987 107.01Z" fill="#A788AB"/>
</g>
</g>
</g>
<mask id="mask8_9_1709" style="mask-type:luminance" maskUnits="userSpaceOnUse" x="228" y="85" width="26" height="16">
<path d="M228.288 85.12H253.344V100.8H228.288V85.12Z" fill="white"/>
</mask>
<g mask="url(#mask8_9_1709)">
<mask id="mask9_9_1709" style="mask-type:luminance" maskUnits="userSpaceOnUse" x="211" y="51" width="108" height="88">
<path d="M211.098 102.495L267.985 51.0212L318.438 87.1179L261.551 138.591L211.098 102.495Z" fill="white"/>
</mask>
<g mask="url(#mask9_9_1709)">
<mask id="mask10_9_1709" style="mask-type:luminance" maskUnits="userSpaceOnUse" x="211" y="51" width="108" height="88">
<path d="M211.098 102.495L267.985 51.0212L318.438 87.1179L261.551 138.591L211.098 102.495Z" fill="white"/>
</mask>
<g mask="url(#mask10_9_1709)">
<path d="M244.398 87.0975C250.705 89.4833 254.236 94.01 252.286 97.2067C250.332 100.409 243.633 101.065 237.322 98.6796C231.014 96.2937 227.483 91.7671 229.434 88.5675C231.387 85.3708 238.086 84.7117 244.398 87.0975Z" fill="#A788AB"/>
</g>
</g>
</g>
<mask id="mask11_9_1709" style="mask-type:luminance" maskUnits="userSpaceOnUse" x="247" y="67" width="21" height="19">
<path d="M247.776 67.2H267.264V85.8667H247.776V67.2Z" fill="white"/>
</mask>
<g mask="url(#mask11_9_1709)">
<mask id="mask12_9_1709" style="mask-type:luminance" maskUnits="userSpaceOnUse" x="211" y="51" width="108" height="88">
<path d="M211.098 102.495L267.985 51.0212L318.438 87.1179L261.551 138.591L211.098 102.495Z" fill="white"/>
</mask>
<g mask="url(#mask12_9_1709)">
<mask id="mask13_9_1709" style="mask-type:luminance" maskUnits="userSpaceOnUse" x="211" y="51" width="108" height="88">
<path d="M211.098 102.495L267.985 51.0212L318.438 87.1179L261.551 138.591L211.098 102.495Z" fill="white"/>
</mask>
<g mask="url(#mask13_9_1709)">
<path d="M263.708 73.115C267.282 77.8079 267.257 83.1396 263.654 85.0238C260.05 86.905 254.229 84.63 250.654 79.94C247.08 75.2471 247.105 69.9154 250.709 68.0313C254.312 66.1471 260.134 68.4221 263.708 73.115Z" fill="#A788AB"/>
</g>
</g>
</g>
<mask id="mask14_9_1709" style="mask-type:luminance" maskUnits="userSpaceOnUse" x="275" y="64" width="18" height="21">
<path d="M275.616 64.96H292.32V84.3733H275.616V64.96Z" fill="white"/>
</mask>
<g mask="url(#mask14_9_1709)">
<mask id="mask15_9_1709" style="mask-type:luminance" maskUnits="userSpaceOnUse" x="211" y="51" width="108" height="88">
<path d="M211.098 102.495L267.985 51.0212L318.438 87.1179L261.551 138.591L211.098 102.495Z" fill="white"/>
</mask>
<g mask="url(#mask15_9_1709)">
<mask id="mask16_9_1709" style="mask-type:luminance" maskUnits="userSpaceOnUse" x="211" y="51" width="108" height="88">
<path d="M211.098 102.495L267.985 51.0212L318.438 87.1179L261.551 138.591L211.098 102.495Z" fill="white"/>
</mask>
<g mask="url(#mask16_9_1709)">
<path d="M291.301 73.5846C292.164 78.8637 289.409 83.6033 285.146 84.1721C280.887 84.7408 276.729 80.92 275.866 75.6408C275.003 70.3587 277.762 65.6192 282.025 65.0504C286.284 64.4817 290.439 68.3025 291.301 73.5846Z" fill="#A788AB"/>
</g>
</g>
</g>
</svg>
