<svg width="209" height="182" viewBox="0 0 209 182" fill="none" xmlns="http://www.w3.org/2000/svg">
<path d="M50.1873 48.4681C46.114 48.4681 43.2554 49.962 41.2547 51.7668V50.3355C41.2547 49.4027 39.1103 48.9041 35.1806 48.9041H35.037C31.1073 48.9041 28.9629 50.7715 29.0347 54.1935C29.1066 58.1766 29.1762 62.0366 29.1762 66.1429C29.1762 74.6078 29.0347 82.5097 28.9629 90.8494C28.9629 94.2733 31.1073 96.1388 35.037 96.1388H35.1806C39.1103 96.1388 41.2547 94.2733 41.1829 90.8494C41.111 86.8663 40.8977 82.9457 40.3251 79.0251L40.754 78.3407C42.5414 81.7646 45.9724 84.0661 50.4028 84.0661C58.8347 84.0661 65.625 77.9047 65.625 65.5837C65.625 52.5138 58.8347 48.4681 50.1873 48.4681ZM47.1154 75.6657C43.9695 75.6657 41.3265 74.4201 41.111 70.3744L41.0413 70.437C41.0413 69.1308 41.0413 67.8226 41.111 66.5164C41.1829 61.0394 41.111 60.4175 41.0413 59.6706C42.4695 58.0534 44.1132 57.2439 46.8302 57.2439C51.4021 57.2439 54.0472 59.608 54.0472 66.2055C54.0472 73.8609 50.8317 75.6657 47.1154 75.6657Z" fill="white"/>
<path d="M85.4201 84.0036C94.2112 84.0036 99.5712 81.8253 101.285 77.2203C102.358 74.4201 99.7127 72.6779 95.9964 72.6779C92.9246 72.6779 92.6372 74.4201 89.9224 75.9766C88.9209 76.4733 87.4209 76.7842 85.492 76.7842C81.7757 76.7842 79.0587 75.2297 78.7735 68.8198H101.572C102.142 68.8198 102.571 68.4464 102.643 67.8226C104.002 56.2486 98.7134 48.4074 85.4201 48.4074C73.0565 48.4074 66.9824 54.1935 66.9824 65.6462C66.9824 77.9047 72.6276 84.0036 85.4201 84.0036ZM78.8454 62.9693C78.7017 57.9283 81.1313 55.5016 84.8476 55.5016C88.9927 55.5016 90.7083 57.9908 90.5646 62.9693H78.8454Z" fill="white"/>
<path d="M124.583 75.8515C121.152 75.9141 119.652 74.2343 119.652 70.6247C119.652 67.3885 119.58 63.7163 119.724 60.1692C119.724 59.0487 119.796 57.9908 119.796 56.8704L125.369 56.8078C128.941 56.8078 130.873 55.4391 130.873 52.8873C130.873 50.3355 128.728 48.9667 124.796 48.9667H119.796V43.4896C119.796 40.1928 117.15 38.7614 113.149 39.88C109.79 40.8146 108.146 42.7427 108.146 45.8556C108.146 46.9135 108.218 47.9088 108.218 48.9667H105.216C103.287 48.9667 102.142 50.398 102.142 52.9498C102.142 55.5016 104.286 56.933 108.218 56.933H108.29V60.1692C108.29 64.1523 108.29 68.1961 108.218 71.8683C108.002 80.8925 113.719 84.1287 122.582 84.1287C124.226 84.1287 125.87 84.0036 127.298 83.7552C130.444 83.196 131.658 81.1409 131.371 78.4658C131.086 75.9141 128.728 75.7264 124.583 75.8515Z" fill="white"/>
<path d="M92.3591 111.252C92.3112 107.538 92.2176 104.074 92.3112 101.185C92.5006 94.3787 89.9905 91.6145 85.0158 91.6145C81.3692 91.6145 78.5738 92.9757 76.7734 95.8631H76.6319C75.5891 92.8942 73.3619 91.6145 69.9526 91.6145C66.3038 91.6145 63.5084 92.9757 61.7101 95.8631H61.6622C61.7101 95.0801 61.7101 94.4204 61.7559 93.8838C61.7559 92.6459 60.2885 91.9444 57.6825 91.9444C55.0766 91.9444 53.6549 93.1824 53.7028 95.4517C53.7507 98.0907 53.7986 100.65 53.7986 103.372C53.7986 106.095 53.7507 108.652 53.7028 111.291C53.6549 113.561 55.0766 114.799 57.6825 114.799H58.0135C60.6194 114.799 62.0411 113.561 61.9932 111.291C61.9932 108.652 61.9453 106.095 61.9932 103.372V99.9486C62.7987 98.4623 64.1724 97.5959 65.9729 97.5561C68.1042 97.5144 69.195 98.4225 69.195 101.103C69.195 103.949 69.1471 107.456 69.0992 111.252C69.0992 113.561 70.5208 114.799 73.1268 114.799H73.2683C75.8742 114.799 77.2937 113.561 77.2937 111.252C77.248 107.538 77.1522 104.074 77.248 101.185V99.6586C78.0535 98.3391 79.3315 97.5959 81.0361 97.5561C83.1697 97.5144 84.2582 98.4225 84.2582 101.103C84.2582 103.949 84.2103 107.456 84.1646 111.252C84.1646 113.561 85.584 114.799 88.19 114.799H88.3315C90.9375 114.799 92.3591 113.561 92.3591 111.252Z" fill="white"/>
<path d="M102.496 115.212C105.148 115.212 107.706 114.427 109.602 112.819C109.648 113.149 109.696 113.479 109.837 113.809C110.027 114.469 111.307 114.799 113.724 114.799H114.15C116.708 114.799 118.034 113.519 117.89 111.21C117.749 108.404 117.749 104.815 117.749 99.8652C117.749 94.3369 114.244 91.6145 107.186 91.6145C100.269 91.6145 96.6225 93.2241 95.5318 96.4413C94.7742 98.7106 96.7161 100.03 99.37 100.03H99.8424C102.163 100.03 102.353 98.9173 103.726 97.1011C104.297 96.3598 105.337 96.0697 106.57 96.0697C108.653 96.0697 109.602 96.9778 109.602 99.9884V101.391C98.9433 101.145 94.0645 103.826 94.0645 108.982C94.0645 113.314 97.8069 115.212 102.496 115.212ZM105.006 110.55C102.779 110.55 101.595 109.435 101.595 107.868C101.595 105.229 105.385 104.774 109.696 104.692V108.404C108.607 109.765 107.138 110.55 105.006 110.55Z" fill="white"/>
<path d="M132.672 109.807C130.397 109.849 129.402 108.734 129.402 106.341C129.402 104.197 129.356 101.763 129.45 99.4121C129.45 98.6689 129.498 97.9675 129.498 97.2262L133.192 97.1845C135.561 97.1845 136.841 96.2764 136.841 94.5853C136.841 92.8942 135.419 91.9861 132.813 91.9861H129.498V88.3556C129.498 86.1697 127.745 85.2218 125.091 85.9631C122.866 86.583 121.776 87.8608 121.776 89.9235C121.776 90.6249 121.824 91.2847 121.824 91.9861H119.834C118.554 91.9861 117.796 92.9359 117.796 94.627C117.796 96.3181 119.218 97.266 121.824 97.266H121.871V99.4121C121.871 102.051 121.871 104.734 121.824 107.168C121.682 113.149 125.47 115.294 131.344 115.294C132.435 115.294 133.523 115.212 134.472 115.047C136.556 114.675 137.361 113.314 137.172 111.54C136.983 109.849 135.419 109.725 132.672 109.807Z" fill="white"/>
<path d="M149.392 115.212C155.124 115.212 158.584 113.314 159.72 109.725C160.384 107.621 158.821 106.341 156.546 106.341C154.177 106.341 153.846 107.538 152.331 109.312C151.761 109.93 150.814 110.179 149.488 110.179C146.978 110.179 145.319 108.899 145.319 103.496C145.319 98.7523 146.455 97.1011 149.488 97.1011C151.147 97.1011 151.998 97.4727 152.473 98.3391C153.468 100.36 154.084 101.475 156.546 101.475C158.915 101.475 160.478 100.114 159.862 97.8025C158.773 93.8004 155.457 91.6145 149.629 91.6145C141.293 91.6145 137.218 95.6166 137.218 103.496C137.218 111.333 140.96 115.212 149.392 115.212Z" fill="white"/>
<path d="M185.347 111.252C185.302 107.538 185.206 104.074 185.302 101.185C185.491 94.3787 182.979 91.6145 178.006 91.6145C174.357 91.6145 171.562 92.9758 169.764 95.8631L169.716 95.7816C170.047 94.0905 170.047 92.3577 170.047 90.46C170.047 89.8002 170.047 88.8106 170.047 87.7376C170.047 85.9214 168.673 84.9317 166.067 84.9317H165.736C163.13 84.9317 161.708 86.1697 161.708 88.439C161.756 92.1928 161.852 95.6982 161.852 99.4121C161.852 103.496 161.756 107.333 161.708 111.291C161.708 113.561 163.13 114.799 165.736 114.799H166.067C168.673 114.799 170.095 113.561 170.095 111.291C170.047 107.538 169.953 103.867 170.047 100.03C170.804 98.504 172.178 97.5959 174.026 97.5561C176.158 97.5144 177.249 98.4225 177.249 101.103C177.249 103.949 177.201 107.456 177.153 111.252C177.153 113.561 178.574 114.799 181.18 114.799H181.322C183.928 114.799 185.347 113.561 185.347 111.252Z" fill="white"/>
<mask id="mask0_9_117" style="mask-type:luminance" maskUnits="userSpaceOnUse" x="156" y="57" width="27" height="24">
<path d="M156.053 57.7546H182.248V80.5653H156.053V57.7546Z" fill="white"/>
</mask>
<g mask="url(#mask0_9_117)">
<mask id="mask1_9_117" style="mask-type:luminance" maskUnits="userSpaceOnUse" x="126" y="33" width="66" height="58">
<path d="M126.78 66.6214L160.945 33.1638L191.246 56.6266L157.081 90.0843L126.78 66.6214Z" fill="white"/>
</mask>
<g mask="url(#mask1_9_117)">
<mask id="mask2_9_117" style="mask-type:luminance" maskUnits="userSpaceOnUse" x="126" y="33" width="66" height="58">
<path d="M126.78 66.6214L160.945 33.1638L191.246 56.6266L157.081 90.0843L126.78 66.6214Z" fill="white"/>
</mask>
<g mask="url(#mask2_9_117)">
<mask id="mask3_9_117" style="mask-type:luminance" maskUnits="userSpaceOnUse" x="147" y="49" width="38" height="34">
<path d="M147.6 69.4784L167.57 49.9229L184.571 63.0895L164.603 82.645L147.6 69.4784Z" fill="white"/>
</mask>
<g mask="url(#mask3_9_117)">
<mask id="mask4_9_117" style="mask-type:luminance" maskUnits="userSpaceOnUse" x="147" y="49" width="38" height="34">
<path d="M147.6 69.4784L167.57 49.9229L184.569 63.0857L164.598 82.6412L147.6 69.4784Z" fill="white"/>
</mask>
<g mask="url(#mask4_9_117)">
<path d="M157.895 69.7344C158.109 72.6938 155.614 76.7926 161.089 79.6591C166.669 82.5786 171.326 75.856 174.289 72.7677C175.867 71.1259 183.994 65.6394 181.525 61.4022C179.366 57.6977 175.229 57.8513 169.721 58.6627C164.799 59.3888 160.183 57.1043 157.218 60.0675C154.442 62.8411 157.762 67.922 157.895 69.7344Z" fill="white"/>
</g>
</g>
</g>
</g>
</g>
<mask id="mask5_9_117" style="mask-type:luminance" maskUnits="userSpaceOnUse" x="138" y="69" width="15" height="9">
<path d="M138.219 69.4027H152.152V77.6533H138.219V69.4027Z" fill="white"/>
</mask>
<g mask="url(#mask5_9_117)">
<mask id="mask6_9_117" style="mask-type:luminance" maskUnits="userSpaceOnUse" x="126" y="33" width="66" height="58">
<path d="M126.78 66.6215L160.945 33.1638L191.246 56.6267L157.081 90.0843L126.78 66.6215Z" fill="white"/>
</mask>
<g mask="url(#mask6_9_117)">
<mask id="mask7_9_117" style="mask-type:luminance" maskUnits="userSpaceOnUse" x="126" y="33" width="66" height="58">
<path d="M126.78 66.6215L160.945 33.1638L191.246 56.6267L157.081 90.0843L126.78 66.6215Z" fill="white"/>
</mask>
<g mask="url(#mask7_9_117)">
<path d="M145.331 69.5563C149.06 69.5581 152.015 71.2985 151.93 73.4427C151.843 75.585 148.751 77.3197 145.022 77.3159C141.293 77.3121 138.338 75.5717 138.423 73.4294C138.508 71.2871 141.602 69.5525 145.331 69.5563Z" fill="white"/>
</g>
</g>
</g>
<mask id="mask8_9_117" style="mask-type:luminance" maskUnits="userSpaceOnUse" x="137" y="55" width="16" height="11">
<path d="M137.104 55.328H152.152V65.52H137.104V55.328Z" fill="white"/>
</mask>
<g mask="url(#mask8_9_117)">
<mask id="mask9_9_117" style="mask-type:luminance" maskUnits="userSpaceOnUse" x="126" y="33" width="66" height="58">
<path d="M126.78 66.6215L160.945 33.1638L191.246 56.6267L157.081 90.0843L126.78 66.6215Z" fill="white"/>
</mask>
<g mask="url(#mask9_9_117)">
<mask id="mask10_9_117" style="mask-type:luminance" maskUnits="userSpaceOnUse" x="126" y="33" width="66" height="58">
<path d="M126.78 66.6215L160.945 33.1638L191.246 56.6267L157.081 90.0843L126.78 66.6215Z" fill="white"/>
</mask>
<g mask="url(#mask10_9_117)">
<path d="M146.779 56.6134C150.567 58.1642 152.688 61.1065 151.516 63.1844C150.343 65.266 146.32 65.6925 142.529 64.1418C138.741 62.591 136.621 59.6486 137.792 57.5689C138.966 55.4911 142.989 55.0626 146.779 56.6134Z" fill="white"/>
</g>
</g>
</g>
<mask id="mask11_9_117" style="mask-type:luminance" maskUnits="userSpaceOnUse" x="148" y="43" width="13" height="13">
<path d="M148.808 43.68H160.512V55.8133H148.808V43.68Z" fill="white"/>
</mask>
<g mask="url(#mask11_9_117)">
<mask id="mask12_9_117" style="mask-type:luminance" maskUnits="userSpaceOnUse" x="126" y="33" width="66" height="58">
<path d="M126.78 66.6215L160.945 33.1638L191.246 56.6267L157.081 90.0843L126.78 66.6215Z" fill="white"/>
</mask>
<g mask="url(#mask12_9_117)">
<mask id="mask13_9_117" style="mask-type:luminance" maskUnits="userSpaceOnUse" x="126" y="33" width="66" height="58">
<path d="M126.78 66.6215L160.945 33.1638L191.246 56.6267L157.081 90.0843L126.78 66.6215Z" fill="white"/>
</mask>
<g mask="url(#mask13_9_117)">
<path d="M158.376 47.5248C160.523 50.5752 160.508 54.0408 158.344 55.2655C156.18 56.4883 152.683 55.0095 150.537 51.961C148.39 48.9106 148.405 45.445 150.569 44.2203C152.733 42.9956 156.23 44.4744 158.376 47.5248Z" fill="white"/>
</g>
</g>
</g>
<mask id="mask14_9_117" style="mask-type:luminance" maskUnits="userSpaceOnUse" x="165" y="42" width="11" height="13">
<path d="M165.528 42.224H175.56V54.8427H165.528V42.224Z" fill="white"/>
</mask>
<g mask="url(#mask14_9_117)">
<mask id="mask15_9_117" style="mask-type:luminance" maskUnits="userSpaceOnUse" x="126" y="33" width="66" height="58">
<path d="M126.78 66.6215L160.945 33.1638L191.246 56.6267L157.081 90.0843L126.78 66.6215Z" fill="white"/>
</mask>
<g mask="url(#mask15_9_117)">
<mask id="mask16_9_117" style="mask-type:luminance" maskUnits="userSpaceOnUse" x="126" y="33" width="66" height="58">
<path d="M126.78 66.6215L160.945 33.1638L191.246 56.6267L157.081 90.0843L126.78 66.6215Z" fill="white"/>
</mask>
<g mask="url(#mask16_9_117)">
<path d="M174.948 47.83C175.467 51.2615 173.812 54.3422 171.252 54.7119C168.694 55.0816 166.196 52.598 165.678 49.1666C165.16 45.7332 166.817 42.6525 169.377 42.2828C171.935 41.9131 174.43 44.3967 174.948 47.83Z" fill="white"/>
</g>
</g>
</g>
</svg>
