<svg width="598" height="150" viewBox="0 0 480 300" fill="none" xmlns="http://www.w3.org/2000/svg">
<path d="M122.226 124.1C112.306 124.1 105.344 127.925 100.472 132.546V128.881C100.472 126.493 95.2491 125.216 85.6789 125.216H85.3289C75.7587 125.216 70.5361 129.997 70.7111 138.759C70.8861 148.958 71.0557 158.841 71.0557 169.355C71.0557 191.029 70.7111 211.261 70.5361 232.614C70.5361 241.381 75.7587 246.158 85.3289 246.158H85.6789C95.2491 246.158 100.472 241.381 100.297 232.614C100.122 222.416 99.6022 212.377 98.2077 202.339L99.2522 200.587C103.605 209.353 111.961 215.246 122.751 215.246C143.286 215.246 159.823 199.47 159.823 167.923C159.823 134.458 143.286 124.1 122.226 124.1ZM114.745 193.737C107.083 193.737 100.647 190.548 100.122 180.189L99.9521 180.35C99.9521 177.005 99.9521 173.656 100.122 170.311C100.297 156.288 100.122 154.695 99.9521 152.783C103.43 148.642 107.433 146.569 114.05 146.569C125.185 146.569 131.627 152.623 131.627 169.515C131.627 189.116 123.796 193.737 114.745 193.737Z" fill="#a788ab"/>
<path d="M208.033 215.086C229.443 215.086 242.497 209.509 246.67 197.718C249.283 190.548 242.841 186.087 233.791 186.087C226.31 186.087 225.61 190.548 218.998 194.534C216.559 195.805 212.906 196.601 208.208 196.601C199.158 196.601 192.541 192.621 191.846 176.209H247.369C248.759 176.209 249.803 175.253 249.978 173.656C253.287 144.021 240.408 123.944 208.033 123.944C177.923 123.944 163.13 138.759 163.13 168.083C163.13 199.47 176.878 215.086 208.033 215.086ZM192.021 161.229C191.671 148.322 197.588 142.109 206.639 142.109C216.734 142.109 220.912 148.482 220.562 161.229H192.021Z" fill="#a788ab"/>
<path d="M303.41 194.213C295.054 194.373 291.401 190.073 291.401 180.83C291.401 172.544 291.226 163.142 291.576 154.059C291.576 151.191 291.751 148.482 291.751 145.613L305.324 145.453C314.025 145.453 318.728 141.948 318.728 135.415C318.728 128.881 313.505 125.376 303.93 125.376H291.751V111.353C291.751 102.911 285.309 99.2462 275.564 102.11C267.383 104.503 263.379 109.44 263.379 117.411C263.379 120.119 263.554 122.668 263.554 125.376H256.243C251.545 125.376 248.756 129.041 248.756 135.575C248.756 142.109 253.979 145.773 263.554 145.773H263.729V154.059C263.729 164.258 263.729 174.612 263.554 184.015C263.03 207.12 276.953 215.406 298.538 215.406C302.541 215.406 306.544 215.086 310.022 214.45C317.683 213.018 320.642 207.756 319.942 200.907C319.248 194.373 313.505 193.893 303.41 194.213Z" fill="#a788ab"/>
<path d="M224.932 284.853C224.815 275.344 224.587 266.475 224.815 259.077C225.276 241.651 219.163 234.573 207.048 234.573C198.167 234.573 191.359 238.059 186.974 245.452H186.63C184.09 237.85 178.666 234.573 170.363 234.573C161.476 234.573 154.669 238.059 150.289 245.452H150.172C150.289 243.447 150.289 241.758 150.4 240.384C150.4 237.214 146.827 235.418 140.48 235.418C134.134 235.418 130.671 238.588 130.788 244.398C130.905 251.155 131.021 257.708 131.021 264.679C131.021 271.65 130.905 278.198 130.788 284.955C130.671 290.765 134.134 293.935 140.48 293.935H141.286C147.633 293.935 151.095 290.765 150.978 284.955C150.978 278.198 150.862 271.65 150.978 264.679V255.912C152.94 252.107 156.286 249.888 160.671 249.786C165.861 249.68 168.518 252.005 168.518 258.869C168.518 266.155 168.401 275.135 168.284 284.853C168.284 290.765 171.747 293.935 178.093 293.935H178.438C184.784 293.935 188.241 290.765 188.241 284.853C188.13 275.344 187.897 266.475 188.13 259.077V255.17C190.092 251.791 193.204 249.888 197.356 249.786C202.552 249.68 205.203 252.005 205.203 258.869C205.203 266.155 205.086 275.135 204.975 284.853C204.975 290.765 208.432 293.935 214.778 293.935H215.123C221.47 293.935 224.932 290.765 224.932 284.853Z" fill="#a788ab"/>
<path d="M249.62 294.993C256.078 294.993 262.308 292.984 266.926 288.867C267.038 289.712 267.154 290.557 267.499 291.401C267.96 293.09 271.078 293.935 276.963 293.935H278.002C284.232 293.935 287.461 290.659 287.111 284.746C286.767 277.562 286.767 268.373 286.767 255.699C286.767 241.544 278.23 234.573 261.041 234.573C244.196 234.573 235.315 238.695 232.659 246.932C230.814 252.743 235.543 256.121 242.007 256.121H243.157C248.809 256.121 249.27 253.272 252.616 248.621C254.005 246.723 256.54 245.981 259.541 245.981C264.615 245.981 266.926 248.306 266.926 256.014V259.606C240.967 258.975 229.085 265.839 229.085 279.043C229.085 290.134 238.2 294.993 249.62 294.993ZM255.734 283.057C250.31 283.057 247.425 280.203 247.425 276.188C247.425 269.431 256.656 268.266 267.154 268.058V277.562C264.503 281.047 260.924 283.057 255.734 283.057Z" fill="#a788ab"/>
<path d="M323.11 281.154C317.569 281.261 315.146 278.407 315.146 272.281C315.146 266.791 315.035 260.558 315.263 254.539C315.263 252.636 315.38 250.84 315.38 248.942L324.377 248.835C330.146 248.835 333.263 246.51 333.263 242.18C333.263 237.85 329.801 235.525 323.455 235.525H315.38V226.229C315.38 220.632 311.111 218.205 304.648 220.103C299.229 221.691 296.573 224.962 296.573 230.244C296.573 232.04 296.69 233.729 296.69 235.525H291.844C288.726 235.525 286.881 237.957 286.881 242.287C286.881 246.617 290.343 249.044 296.69 249.044H296.806V254.539C296.806 261.296 296.806 268.164 296.69 274.397C296.345 289.712 305.571 295.202 319.876 295.202C322.532 295.202 325.183 294.993 327.495 294.571C332.569 293.62 334.531 290.134 334.069 285.591C333.608 281.261 329.801 280.945 323.11 281.154Z" fill="#a788ab"/>
<path d="M363.83 294.993C377.791 294.993 386.216 290.134 388.983 280.945C390.601 275.557 386.794 272.281 381.253 272.281C375.484 272.281 374.678 275.344 370.988 279.887C369.599 281.47 367.293 282.105 364.064 282.105C357.95 282.105 353.91 278.829 353.91 264.995C353.91 252.849 356.678 248.621 364.064 248.621C368.104 248.621 370.177 249.573 371.333 251.791C373.756 256.966 375.256 259.82 381.253 259.82C387.022 259.82 390.829 256.335 389.328 250.417C386.677 240.17 378.602 234.573 364.408 234.573C344.107 234.573 334.181 244.821 334.181 264.995C334.181 285.062 343.295 294.993 363.83 294.993Z" fill="#a788ab"/>
<path d="M451.396 284.853C451.284 275.344 451.051 266.475 451.284 259.077C451.746 241.651 445.627 234.573 433.517 234.573C424.631 234.573 417.823 238.059 413.443 245.452L413.327 245.243C414.133 240.913 414.133 236.476 414.133 231.617C414.133 229.928 414.133 227.394 414.133 224.647C414.133 219.996 410.787 217.463 404.44 217.463H403.635C397.288 217.463 393.826 220.632 393.826 226.443C393.942 236.054 394.176 245.029 394.176 254.539C394.176 264.995 393.942 274.819 393.826 284.955C393.826 290.765 397.288 293.935 403.635 293.935H404.44C410.787 293.935 414.249 290.765 414.249 284.955C414.133 275.344 413.905 265.946 414.133 256.121C415.978 252.214 419.323 249.888 423.825 249.786C429.016 249.68 431.672 252.005 431.672 258.869C431.672 266.155 431.555 275.135 431.439 284.853C431.439 290.765 434.901 293.935 441.248 293.935H441.592C447.939 293.935 451.396 290.765 451.396 284.853Z" fill="#a788ab"/>
<mask id="mask0_9_117" style="mask-type:luminance" maskUnits="userSpaceOnUse" x="380" y="147" width="64" height="60">
<path d="M380.053 147.877H443.848V206.283H380.053V147.877Z" fill="#a788ab"/>
</mask>
<g mask="url(#mask0_9_117)">
<mask id="mask1_9_117" style="mask-type:luminance" maskUnits="userSpaceOnUse" x="308" y="84" width="158" height="147">
<path d="M308.761 170.58L391.967 84.9139L465.761 144.989L382.556 230.655L308.761 170.58Z" fill="#a788ab"/>
</mask>
<g mask="url(#mask1_9_117)">
<mask id="mask2_9_117" style="mask-type:luminance" maskUnits="userSpaceOnUse" x="308" y="84" width="158" height="147">
<path d="M308.761 170.58L391.967 84.9139L465.761 144.989L382.556 230.655L308.761 170.58Z" fill="#a788ab"/>
</mask>
<g mask="url(#mask2_9_117)">
<mask id="mask3_9_117" style="mask-type:luminance" maskUnits="userSpaceOnUse" x="359" y="127" width="91" height="85">
<path d="M359.465 177.895L408.101 127.825L449.505 161.537L400.874 211.608L359.465 177.895Z" fill="#a788ab"/>
</mask>
<g mask="url(#mask3_9_117)">
<mask id="mask4_9_117" style="mask-type:luminance" maskUnits="userSpaceOnUse" x="359" y="127" width="91" height="85">
<path d="M359.465 177.896L408.101 127.825L449.5 161.527L400.864 211.598L359.465 177.896Z" fill="#a788ab"/>
</mask>
<g mask="url(#mask4_9_117)">
<path d="M384.538 178.551C385.058 186.128 378.982 196.623 392.317 203.962C405.906 211.438 417.247 194.225 424.463 186.317C428.307 182.114 448.1 168.066 442.087 157.217C436.828 147.732 426.754 148.125 413.339 150.202C401.351 152.062 390.111 146.212 382.89 153.799C376.129 160.901 384.215 173.91 384.538 178.551Z" fill="#a788ab"/>
</g>
</g>
</g>
</g>
</g>
<mask id="mask5_9_117" style="mask-type:luminance" maskUnits="userSpaceOnUse" x="336" y="177" width="35" height="22">
<path d="M336.619 177.701H370.552V198.827H336.619V177.701Z" fill="#a788ab"/>
</mask>
<g mask="url(#mask5_9_117)">
<mask id="mask6_9_117" style="mask-type:luminance" maskUnits="userSpaceOnUse" x="308" y="84" width="158" height="147">
<path d="M308.762 170.58L391.967 84.9139L465.762 144.989L382.556 230.655L308.762 170.58Z" fill="#a788ab"/>
</mask>
<g mask="url(#mask6_9_117)">
<mask id="mask7_9_117" style="mask-type:luminance" maskUnits="userSpaceOnUse" x="308" y="84" width="158" height="147">
<path d="M308.762 170.58L391.967 84.9139L465.762 144.989L382.556 230.655L308.762 170.58Z" fill="#a788ab"/>
</mask>
<g mask="url(#mask7_9_117)">
<path d="M353.941 178.095C363.023 178.099 370.218 182.556 370.011 188.046C369.799 193.531 362.27 197.972 353.188 197.963C344.105 197.953 336.91 193.497 337.117 188.012C337.324 182.526 344.858 178.085 353.941 178.095Z" fill="#a788ab"/>
</g>
</g>
</g>
<mask id="mask8_9_117" style="mask-type:luminance" maskUnits="userSpaceOnUse" x="333" y="141" width="38" height="27">
<path d="M333.904 141.664H370.552V167.76H333.904V141.664Z" fill="#a788ab"/>
</mask>
<g mask="url(#mask8_9_117)">
<mask id="mask9_9_117" style="mask-type:luminance" maskUnits="userSpaceOnUse" x="308" y="84" width="158" height="147">
<path d="M308.761 170.58L391.967 84.9139L465.761 144.989L382.556 230.655L308.761 170.58Z" fill="#a788ab"/>
</mask>
<g mask="url(#mask9_9_117)">
<mask id="mask10_9_117" style="mask-type:luminance" maskUnits="userSpaceOnUse" x="308" y="84" width="158" height="147">
<path d="M308.761 170.58L391.967 84.9139L465.761 144.989L382.556 230.655L308.761 170.58Z" fill="#a788ab"/>
</mask>
<g mask="url(#mask10_9_117)">
<path d="M357.466 144.955C366.692 148.926 371.856 156.46 369.003 161.78C366.146 167.11 356.347 168.202 347.116 164.231C337.891 160.26 332.727 152.727 335.579 147.402C338.437 142.081 348.235 140.984 357.466 144.955Z" fill="#a788ab"/>
</g>
</g>
</g>
<mask id="mask11_9_117" style="mask-type:luminance" maskUnits="userSpaceOnUse" x="362" y="111" width="29" height="32">
<path d="M362.408 111.84H390.912V142.907H362.408V111.84Z" fill="#a788ab"/>
</mask>
<g mask="url(#mask11_9_117)">
<mask id="mask12_9_117" style="mask-type:luminance" maskUnits="userSpaceOnUse" x="308" y="84" width="158" height="147">
<path d="M308.762 170.58L391.967 84.9139L465.762 144.989L382.556 230.655L308.762 170.58Z" fill="#a788ab"/>
</mask>
<g mask="url(#mask12_9_117)">
<mask id="mask13_9_117" style="mask-type:luminance" maskUnits="userSpaceOnUse" x="308" y="84" width="158" height="147">
<path d="M308.762 170.58L391.967 84.9139L465.762 144.989L382.556 230.655L308.762 170.58Z" fill="#a788ab"/>
</mask>
<g mask="url(#mask13_9_117)">
<path d="M385.711 121.684C390.939 129.495 390.901 138.368 385.631 141.504C380.361 144.635 371.846 140.849 366.618 133.043C361.39 125.233 361.427 116.359 366.697 113.223C371.968 110.088 380.483 113.874 385.711 121.684Z" fill="#a788ab"/>
</g>
</g>
</g>
<mask id="mask14_9_117" style="mask-type:luminance" maskUnits="userSpaceOnUse" x="403" y="108" width="25" height="33">
<path d="M403.128 108.112H427.56V140.421H403.128V108.112Z" fill="#a788ab"/>
</mask>
<g mask="url(#mask14_9_117)">
<mask id="mask15_9_117" style="mask-type:luminance" maskUnits="userSpaceOnUse" x="308" y="84" width="158" height="147">
<path d="M308.761 170.58L391.967 84.9139L465.761 144.989L382.556 230.655L308.761 170.58Z" fill="#a788ab"/>
</mask>
<g mask="url(#mask15_9_117)">
<mask id="mask16_9_117" style="mask-type:luminance" maskUnits="userSpaceOnUse" x="308" y="84" width="158" height="147">
<path d="M308.761 170.58L391.967 84.9139L465.761 144.989L382.556 230.655L308.761 170.58Z" fill="#a788ab"/>
</mask>
<g mask="url(#mask16_9_117)">
<path d="M426.07 122.466C427.332 131.252 423.302 139.14 417.067 140.086C410.837 141.033 404.755 134.674 403.493 125.888C402.232 117.097 406.266 109.209 412.502 108.262C418.732 107.316 424.808 113.675 426.07 122.466Z" fill="#a788ab"/>
</g>
</g>
</g>
</svg>
