<svg width="346" height="411" viewBox="0 0 346 411" fill="none" xmlns="http://www.w3.org/2000/svg">
<path d="M127.313 410.275C93.3668 407.731 64.8474 383.175 55.6483 349.027C44.1801 306.539 46.1907 260.001 62.2511 219.127C83.7969 164.244 130.192 120.626 184.781 103.917C230.269 89.9955 286.624 98.1204 313.499 138.828C331.028 165.384 332.532 199.659 332.658 231.894C332.795 262.711 332.17 294.017 323.674 323.577C315.178 353.136 297.722 381.087 271.511 395.38C247.93 408.245 220.172 408.836 193.56 409.145C170.258 409.414 148.214 411.84 127.313 410.275Z" fill="#83C678"/>
<path d="M89.284 146.91C101.174 128.1 113.39 118.274 131.895 106.619C139.524 101.811 148.733 95.7437 148.309 86.4661C147.943 78.448 140.095 72.954 132.563 71.2337C115.633 67.3766 97.6151 76.3308 86.827 90.431C76.039 104.531 71.5638 122.92 70.6376 140.912C70.3744 145.876 70.9691 151.949 75.298 154.076C80.3971 156.58 85.7741 151.478 89.284 146.891" fill="#83C678"/>
<path d="M319.831 341.932C320.367 340.957 320.836 339.946 321.231 338.906C323.613 332.767 325.985 331.06 328.372 324.035C328.685 322.931 329.162 321.88 329.787 320.917C332.125 317.658 337.299 317.711 340.642 319.944C347.094 324.249 347.553 334.363 342.912 340.57C337.958 347.185 328.948 349.759 320.748 349.423C320.336 349.409 319.938 349.269 319.61 349.02C319.281 348.772 319.038 348.428 318.913 348.037C318.196 345.658 318.835 343.727 319.831 341.932Z" fill="#83C678"/>
<path d="M234.945 77.76C234.945 77.76 321.153 74.2724 335.635 155.476" stroke="#83C678" stroke-width="2" stroke-miterlimit="10" stroke-linecap="round"/>
<path d="M194.509 67.5219C192.182 68.8117 189.598 69.5193 186.963 69.5886C184.328 69.6579 181.713 69.087 179.327 67.9212C177.803 67.1621 176.336 66.1022 175.541 64.5544C174.745 63.0066 174.727 60.9066 175.895 59.625C176.373 59.1637 176.943 58.8198 177.565 58.6185C178.186 58.4171 178.843 58.3635 179.488 58.4616C180.773 58.6673 182.021 59.0763 183.188 59.6743C181.116 58.6194 178.929 57.4659 177.718 55.4153C176.506 53.3647 176.814 50.1556 178.92 49.1648C180.737 48.307 182.819 49.4359 184.443 50.6436C189.691 54.523 194.315 59.8715 195.706 66.4177" fill="#83C678"/>
<path d="M42.4519 240.701C36.844 249.094 15.8605 312.744 63.6674 377.917" stroke="#83C678" stroke-width="2" stroke-miterlimit="10" stroke-linecap="round"/>
<mask id="mask0_15_2" style="mask-type:luminance" maskUnits="userSpaceOnUse" x="94" y="166" width="204" height="196">
<path d="M94 166H298V362H94V166Z" fill="white"/>
</mask>
<g mask="url(#mask0_15_2)">
<path d="M128.802 166C112.637 166 94.1316 194.474 94.1316 206.103C94.1316 215.418 101.844 223.17 110.732 226.557C111.209 225.8 111.725 225.043 112.289 224.327C111.725 221.208 111.469 218.089 111.469 215.015C111.469 195.141 122.046 177.764 137.734 168.584C135.133 166.934 132.056 166 128.802 166ZM198.15 166C194.897 166 191.819 166.934 189.218 168.584C204.906 177.764 215.484 195.141 215.484 215.015C215.484 218.089 215.227 221.208 214.663 224.327C215.227 225.043 215.744 225.8 216.22 226.557C225.105 223.17 232.821 215.418 232.821 206.103C232.821 194.474 214.315 166 198.15 166ZM163.476 170.456C139.552 170.456 120.134 190.417 120.134 215.015C120.134 219.072 120.694 222.997 121.694 226.738C115.363 233.556 111.469 242.732 111.469 252.891C111.469 273.79 127.981 290.768 148.308 290.768H159.142V262.746C154.071 259.804 150.473 252.579 150.473 250.665C150.473 248.213 156.281 246.209 163.476 246.209C170.672 246.209 176.479 248.213 176.479 250.665C176.479 252.579 172.881 259.804 167.81 262.746V290.768H178.644C198.971 290.768 215.484 273.79 215.484 252.891C215.484 242.732 211.589 233.556 205.258 226.738C206.255 222.997 206.819 219.072 206.819 215.015C206.819 190.417 187.401 170.456 163.476 170.456ZM148.308 219.471C151.902 219.471 154.808 222.458 154.808 226.154C154.808 229.853 151.902 232.84 148.308 232.84C144.71 232.84 141.805 229.853 141.805 226.154C141.805 222.458 144.71 219.471 148.308 219.471ZM178.644 219.471C182.242 219.471 185.148 222.458 185.148 226.154C185.148 229.853 182.242 232.84 178.644 232.84C175.046 232.84 172.145 229.853 172.145 226.154C172.145 222.458 175.046 219.471 178.644 219.471ZM280.97 246.25C279.846 246.118 278.681 246.435 277.812 247.192L258.046 263.405C253.972 262.026 245.131 259.578 232.821 259.578C229.483 259.578 226.453 259.751 223.636 260.064C220.258 282.477 201.356 299.68 178.644 299.68H172.101C169.979 306.589 167.939 316.793 167.81 330.829C167.81 331.631 168.03 332.434 168.419 333.1C169.071 334.306 185.408 362.068 232.821 362.068C280.238 362.068 296.574 334.306 297.223 333.1C297.615 332.434 297.835 331.631 297.835 330.829C297.659 308.86 292.76 296.298 290.027 291.039C291.632 288.319 293.501 283.818 293.501 277.399C293.501 260.421 284.264 248.394 283.876 247.904C283.18 246.97 282.099 246.386 280.97 246.25ZM217.653 299.68C221.251 299.68 224.152 302.667 224.152 306.366C224.152 310.062 221.251 313.049 217.653 313.049C214.055 313.049 211.149 310.062 211.149 306.366C211.149 302.667 214.055 299.68 217.653 299.68ZM247.993 299.68C251.587 299.68 254.492 302.667 254.492 306.366C254.492 310.062 251.587 313.049 247.993 313.049C244.395 313.049 241.489 310.062 241.489 306.366C241.489 302.667 244.395 299.68 247.993 299.68ZM232.821 317.505C240.017 317.505 245.824 319.509 245.824 321.961C245.824 323.521 242.405 328.384 238.807 331.812C240.324 333.507 242.702 335.33 245.824 335.33V344.243C239.929 344.243 235.594 341.214 232.821 338.272C230.047 341.214 225.713 344.243 219.818 344.243V335.33C222.94 335.33 225.321 333.507 226.838 331.812C223.24 328.384 219.818 323.521 219.818 321.961C219.818 319.509 225.629 317.505 232.821 317.505Z" fill="white"/>
</g>
</svg>
